700 0 2 0           
30 Autodesk Translation Framework 20 ASM 228.2.0.65535 NT 24 Sat Jun 18 22:15:03 2022 
1 9.999999999999999547e-07 1.000000000000000036e-10 
body $2 -1 $-1 $3 $-1 $4 #
body $5 -1 $-1 $6 $-1 $7 #
rgb_color-st-attrib $-1 -1 $8 $-1 $0 0.627450980392156854 0.627450980392156854 0.627450980392156854 #
lump $-1 -1 $-1 $-1 $9 $0 #
transform $-1 -1 1 0 0 0 1 0 0 0 1 0 0 0 1 no_rotate no_reflect no_shear #
rgb_color-st-attrib $-1 -1 $10 $-1 $1 0.627450980392156854 0.627450980392156854 0.627450980392156854 #
lump $-1 -1 $-1 $-1 $11 $1 #
transform $-1 -1 1 0 0 0 1 0 0 0 1 0 0 0 1 no_rotate no_reflect no_shear #
ATTRIB_CUSTOM-attrib $-1 -1 $-1 $2 $0 @20 Timestamp_attrib_def 1 1655354139441873 #
shell $-1 -1 $-1 $-1 $-1 $12 $-1 $3 #
ATTRIB_CUSTOM-attrib $-1 -1 $-1 $5 $1 @20 Timestamp_attrib_def 1 1655608274978495 #
shell $-1 -1 $-1 $-1 $-1 $13 $-1 $6 #
face $14 -1 $-1 $15 $16 $9 $-1 $17 reversed single #
face $18 -1 $-1 $19 $20 $11 $-1 $21 forward single #
DXID-attrib $-1 -1 $-1 $-1 $12 @10 ASM ENTITY @1 0 #
face $22 -1 $-1 $23 $24 $9 $-1 $17 reversed single #
loop $-1 -1 $-1 $25 $26 $12 #
cone-surface $-1 -1 $-1 -39.89633612499194015 -31.52815094248182959 2.047309187581454637 -0.7071067811865475727 0.7071067811865474617 -4.710277376051325747e-16 -1.498801083243959949e-15 4.496403249731877678e-15 8.999999999999987566 1 I I 0 1 8.999999999999987566 forward I I I I #
DXID-attrib $-1 -1 $-1 $-1 $13 @10 ASM ENTITY @1 0 #
face $27 -1 $-1 $28 $29 $11 $-1 $30 forward single #
loop $-1 -1 $-1 $31 $32 $13 #
cone-surface $-1 -1 $-1 -107.9036961930402185 36.47920912556650563 2.047309187581407564 0.7071067811865473507 -0.7071067811865475727 5.102800490722268737e-16 5.656854249492383246 5.65685424949238147 0 1 I I 0 1 8.000000000000003553 forward I I I I #
DXID-attrib $-1 -1 $-1 $-1 $15 @10 ASM ENTITY @1 1 #
face $33 -1 $-1 $34 $35 $9 $-1 $36 forward single #
loop $-1 -1 $-1 $37 $38 $15 #
loop $-1 -1 $-1 $-1 $39 $12 #
coedge $-1 -1 $-1 $26 $26 $40 $41 reversed $16 $-1 #
DXID-attrib $-1 -1 $-1 $-1 $19 @10 ASM ENTITY @1 1 #
face $42 -1 $-1 $-1 $43 $11 $-1 $44 reversed single #
loop $-1 -1 $-1 $-1 $45 $19 #
plane-surface $-1 -1 $-1 -23.05088245065451247 -48.37360461681924306 2.047309187581468848 0.7071067811865473507 -0.7071067811865475727 5.102800490722268737e-16 7.07106781186547817 7.071067811865476394 0 forward_v I I I I #
loop $-1 -1 $-1 $-1 $46 $13 #
coedge $-1 -1 $-1 $32 $32 $45 $47 reversed $20 $-1 #
DXID-attrib $-1 -1 $-1 $-1 $23 @10 ASM ENTITY @1 2 #
face $48 -1 $-1 $49 $50 $9 $-1 $51 forward single #
loop $-1 -1 $-1 $52 $53 $23 #
cone-surface $-1 -1 $-1 -54.03847174872289116 -17.38601531875088568 19.54730918758143332 1.665334536937735304e-16 -4.996003610813204432e-16 -1 -34.99999999999997158 1.942890293094025918e-15 -5.828670879282069471e-15 1 I I 0 1 34.99999999999997158 forward I I I I #
loop $-1 -1 $-1 $-1 $54 $15 #
coedge $-1 -1 $-1 $38 $38 $55 $56 reversed $24 $-1 #
coedge $-1 -1 $-1 $39 $39 $57 $58 reversed $25 $-1 #
coedge $-1 -1 $-1 $40 $40 $26 $41 forward $59 $-1 #
edge $-1 -1 $-1 $60 0 $60 5.450770378718042153 $40 $61 forward @7 unknown #
DXID-attrib $-1 -1 $-1 $-1 $28 @10 ASM ENTITY @1 2 #
loop $-1 -1 $-1 $-1 $62 $28 #
plane-surface $-1 -1 $-1 -107.9036961930402185 36.47920912556650563 2.047309187581407564 0.7071067811865473507 -0.7071067811865475727 5.102800490722268737e-16 7.07106781186547817 7.071067811865476394 0 forward_v I I I I #
coedge $-1 -1 $-1 $45 $45 $32 $47 forward $29 $-1 #
coedge $63 -1 $-1 $46 $46 $62 $64 forward $31 $-1 #
edge $-1 -1 $-1 $65 -3.141592653589793116 $65 3.141592653589793116 $32 $66 forward @7 unknown #
DXID-attrib $-1 -1 $-1 $-1 $34 @10 ASM ENTITY @1 3 #
face $67 -1 $-1 $68 $69 $9 $-1 $70 forward single #
loop $-1 -1 $-1 $71 $55 $34 #
plane-surface $-1 -1 $-1 -60.20643213658183157 -51.8382469540717068 19.54730918758144753 -0.7071067811865475727 0.7071067811865474617 -4.710277376051325747e-16 7.071067811865469288 7.071067811865471064 -2.355138688025661098e-15 forward_v I I I I #
loop $-1 -1 $-1 $-1 $72 $23 #
coedge $-1 -1 $-1 $53 $53 $54 $73 forward $35 $-1 #
coedge $-1 -1 $-1 $54 $54 $53 $73 reversed $37 $-1 #
coedge $-1 -1 $-1 $55 $55 $38 $56 forward $50 $-1 #
edge $-1 -1 $-1 $74 -3.141592653589793116 $74 3.141592653589793116 $55 $75 forward @7 unknown #
coedge $-1 -1 $-1 $57 $57 $39 $58 forward $76 $-1 #
edge $-1 -1 $-1 $77 -3.141592653589793116 $77 3.141592653589793116 $57 $78 forward @7 unknown #
loop $-1 -1 $-1 $79 $40 $80 #
vertex $-1 -1 $-1 $41 $81 #
intcurve-curve $-1 -1 $-1 forward { surfintcur full nubs 3 periodic 17 
	0 3 0.3406999022165052571 2 0.6813998044330105142 2 1.022046199556260415 2 1.362692594679510316 2 
	1.703338989802760217 2 2.043985384926009896 2 2.384685287142515264 2 2.725385189359020632 2 3.066085091575526 2 
	3.406784993792031369 2 3.747431388915281048 2 4.088077784038531171 2 4.428724179161781294 2 4.769370574285031417 2 
	5.110070476501537229 2 5.450770378718042153 3 
	-71.59103220424674419 12.89446719813080122 2.047309187581426215 
	-71.59103220424674419 12.89446719813080122 3.18297552830311048 
	-71.79692131309295178 12.77789902959900203 4.390650662805576587 
	-72.60651914522151174 12.28639390438910084 6.606432950898792456 
	-73.20750628826614559 11.90910070934855369 7.615010361533613548 
	-74.54170652709012757 10.99131482273173432 9.207405021970828329 
	-75.3651256194860224 10.38831663983588882 9.899251103133092755 
	-77.08731595818821347 8.97665642744479797 10.81934104399233831 
	-77.98429783699069162 8.165633276039596211 11.04730918758141556 
	-79.59012034351337661 6.559810769516911222 11.04730918758141556 
	-80.40114349491857126 5.662828890714440178 10.81934104399233831 
	-81.81280370730966922 3.940638552012238449 9.899251103133092755 
	-82.41580189020550051 3.117219459616350719 9.207405021970828329 
	-83.33358777682232699 1.783019220792372295 7.615010361533620653 
	-83.71088097186287769 1.182032077747752652 6.606432950898792456 
	-84.20238609707277533 0.3724342456191820361 4.390650662805569482 
	-84.31895426560458873 0.1665451367729673393 3.182975528303117585 
	-84.31895426560458873 0.1665451367729673393 0.9116428468597490564 
	-84.20238609707277533 0.3724342456191820361 -0.2960322876427028405 
	-83.71088097186286348 1.182032077747745547 -2.511814575735918709 
	-83.33358777682232699 1.783019220792365189 -3.520391986370761117 
	-82.41580189020550051 3.117219459616343613 -5.112786646807968793 
	-81.81280370730966922 3.940638552012238449 -5.804632727970236772 
	-80.40114349491858547 5.662828890714436625 -6.724722668829478778 
	-79.5901203435133624 6.559810769516900564 -6.952690812418559574 
	-77.98429783699067741 8.165633276039585553 -6.952690812418559574 
	-77.08731595818821347 8.976656427444801523 -6.724722668829478778 
	-75.36512561948600819 10.38831663983589237 -5.804632727970236772 
	-74.54170652709011335 10.99131482273172722 -5.112786646807968793 
	-73.20750628826613138 11.90910070934854659 -3.520391986370761117 
	-72.60651914522151174 12.28639390438909729 -2.51181457573593292 
	-71.79692131309295178 12.77789902959900203 -0.2960322876427170513 
	-71.59103220424674419 12.89446719813080122 0.9116428468597490564 
	-71.59103220424674419 12.89446719813080122 2.047309187581426215 
	0.003757401443490434537 
	
	cone -39.89633612499194015 -31.52815094248182959 2.047309187581454637 -0.7071067811865475727 0.7071067811865474617 -4.710277376051325747e-16 -1.498801083243959949e-15 4.496403249731877678e-15 8.999999999999987566 1 I I 0 1 8.999999999999987566 forward I I I I 
	cone -54.03847174872289116 -17.38601531875088568 19.54730918758143332 1.665334536937735304e-16 -4.996003610813204432e-16 -1 -34.99999999999997158 1.942890293094025918e-15 -5.828670879282069471e-15 1 I I 0 1 34.99999999999997158 forward I I I I 
	nullbs 
	nullbs 
	I I 
	0 
	0 
	0 
	} I I #
coedge $82 -1 $-1 $62 $62 $46 $64 reversed $43 $-1 #
ATTRIB_CUSTOM-attrib $-1 -1 $-1 $-1 $46 @17 sketch_attrib_def 1 1 3 @13 102 0 0 0 1 1 #
edge $-1 -1 $-1 $83 -3.141592653589793116 $83 3.141592653589793116 $46 $84 forward @7 unknown #
vertex $-1 -1 $-1 $47 $85 #
ellipse-curve $-1 -1 $-1 -23.05088245065451247 -48.37360461681924306 2.047309187581468848 0.7071067811865473507 -0.7071067811865475727 5.102800490722268737e-16 5.656854249492383246 5.65685424949238147 0 1 I I #
DXID-attrib $-1 -1 $-1 $-1 $49 @10 ASM ENTITY @1 4 #
face $86 -1 $-1 $87 $88 $9 $-1 $89 reversed single #
loop $-1 -1 $-1 $-1 $90 $49 #
plane-surface $-1 -1 $-1 -39.62245194265236847 -31.80203512482141548 -15.45269081241853115 1.665334536937735304e-16 -4.996003610813204432e-16 -1 -9.999999999999992895 5.551115123125788619e-16 -1.665334536937734416e-15 forward_v I I I I #
loop $-1 -1 $-1 $-1 $91 $34 #
coedge $92 -1 $-1 $93 $94 $95 $96 reversed $52 $-1 #
edge $-1 -1 $-1 $97 2.725385189359019744 $97 8.176155568077060565 $53 $98 forward @7 unknown #
vertex $-1 -1 $-1 $56 $99 #
ellipse-curve $-1 -1 $-1 -39.89633612499194015 -31.52815094248182959 2.047309187581454637 0.7071067811865475727 -0.7071067811865474617 4.710277376051325747e-16 -1.498801083243959949e-15 4.496403249731877678e-15 8.999999999999987566 1 I I #
loop $-1 -1 $-1 $100 $57 $87 #
vertex $-1 -1 $-1 $58 $101 #
ellipse-curve $-1 -1 $-1 -68.18060737245382086 -3.24387969501995066 2.047309187581440426 -0.7071067811865475727 0.7071067811865474617 -4.710277376051325747e-16 -1.498801083243959949e-15 4.496403249731877678e-15 8.999999999999987566 1 I I #
loop $-1 -1 $-1 $-1 $102 $80 #
face $103 -1 $-1 $104 $59 $9 $-1 $105 forward single #
point $-1 -1 $-1 -71.59103220424674419 12.89446719813080122 2.047309187581426215 #
ATTRIB_CUSTOM-attrib $-1 -1 $-1 $-1 $62 @17 sketch_attrib_def 1 1 3 @13 102 0 0 0 1 1 #
vertex $-1 -1 $-1 $64 $106 #
ellipse-curve $-1 -1 $-1 -107.9036961930402185 36.47920912556650563 2.047309187581407564 0.7071067811865473507 -0.7071067811865475727 5.102800490722268737e-16 5.656854249492383246 5.65685424949238147 0 1 I I #
point $-1 -1 $-1 -28.70773670014689571 -54.03045886631162631 2.04730918758146796 #
DXID-attrib $-1 -1 $-1 $-1 $68 @10 ASM ENTITY @1 5 #
face $107 -1 $-1 $80 $76 $9 $-1 $108 forward single #
loop $-1 -1 $-1 $109 $110 $68 #
plane-surface $-1 -1 $-1 -54.03847174872289116 -17.38601531875088568 19.54730918758143332 -1.665334536937735304e-16 4.996003610813204432e-16 1 9.999999999999992895 -5.551115123125788619e-16 1.665334536937734416e-15 forward_v I I I I #
coedge $-1 -1 $-1 $111 $111 $112 $113 forward $69 $-1 #
coedge $114 -1 $-1 $115 $116 $117 $118 reversed $71 $-1 #
ATTRIB_CUSTOM-attrib $-1 -1 $-1 $-1 $72 @17 sketch_attrib_def 1 1 3 @13 131 0 0 0 2 2 #
coedge $-1 -1 $-1 $119 $72 $116 $120 forward $52 $-1 #
coedge $-1 -1 $-1 $72 $119 $115 $121 reversed $52 $-1 #
coedge $-1 -1 $-1 $122 $123 $72 $96 forward $124 $-1 #
edge $-1 -1 $-1 $125 -1.747948911282135143 $126 0.1771525844872388067 $95 $127 forward @7 unknown #
vertex $-1 -1 $-1 $73 $128 #
intcurve-curve $-1 -1 $-1 forward { surfintcur full nubs 3 periodic 17 
	0 3 0.3406999022165053126 2 0.6813998044330106252 2 1.022046199556260415 2 1.362692594679510094 2 
	1.703338989802759773 2 2.043985384926009452 2 2.384685287142514376 2 2.725385189359019744 2 3.066085091575525112 2 
	3.406784993792030036 2 3.747431388915280159 2 4.088077784038530282 2 4.428724179161779517 2 4.769370574285028752 2 
	5.110070476501534564 2 5.450770378718040376 3 
	-23.75798923184118649 -34.93857577427475292 2.047309187581461742 
	-23.75798923184118649 -34.93857577427475292 0.9116428468597703727 
	-23.87455740037299279 -35.14446488312096051 -0.2960322876426744187 
	-24.36606252558288688 -35.95406271524952047 -2.511814575735883182 
	-24.74335572062342692 -36.55504985829415432 -3.52039198637072559 
	-25.66114160724025339 -37.8892500971181363 -5.112786646807933266 
	-26.26413979013609534 -38.71266918951402403 -5.804632727970201245 
	-27.67580000252718619 -40.4348595282162222 -6.724722668829443251 
	-28.48682315393239151 -41.33184140701870035 -6.952690812418524047 
	-30.09264566045507294 -42.93766391354138534 -6.952690812418524047 
	-30.98962753925754399 -43.7486870649465871 -6.724722668829443251 
	-32.71181787795974572 -45.16034727733767795 -5.804632727970201245 
	-33.53523697035564055 -45.76334546023351635 -5.112786646807933266 
	-34.86943720917962253 -46.68113134685034282 -3.52039198637072559 
	-35.47042435222424217 -47.05842454189088642 -2.511814575735883182 
	-36.28002218435280923 -47.54992966710078406 -0.2960322876426673133 
	-36.48591129319902393 -47.66649783563258325 0.9116428468597774781 
	-36.48591129319902393 -47.66649783563258325 3.182975528303146007 
	-36.28002218435281634 -47.54992966710077695 4.390650662805605009 
	-35.47042435222424928 -47.05842454189087931 6.606432950898820877 
	-34.86943720917962253 -46.68113134685033572 7.615010361533649075 
	-33.53523697035564766 -45.76334546023350924 9.207405021970863856 
	-32.71181787795975282 -45.16034727733766374 9.89925110313312473 
	-30.98962753925755109 -43.74868706494657289 10.81934104399237739 
	-30.09264566045508005 -42.93766391354137113 11.04730918758145108 
	-28.48682315393239861 -41.33184140701869325 11.04730918758145108 
	-27.67580000252719685 -40.4348595282162222 10.81934104399237739 
	-26.264139790136106 -38.71266918951401692 9.899251103133128282 
	-25.6611416072402676 -37.88925009711812919 9.207405021970863856 
	-24.74335572062344113 -36.55504985829415432 7.61501036153365618 
	-24.36606252558289398 -35.95406271524953468 6.606432950898835088 
	-23.87455740037299279 -35.14446488312096051 4.390650662805612114 
	-23.75798923184118649 -34.93857577427475292 3.182975528303146007 
	-23.75798923184118649 -34.93857577427475292 2.047309187581461742 
	0.003757401443489208522 
	
	cone -39.89633612499194015 -31.52815094248182959 2.047309187581454637 -0.7071067811865475727 0.7071067811865474617 -4.710277376051325747e-16 -1.498801083243959949e-15 4.496403249731877678e-15 8.999999999999987566 1 I I 0 1 8.999999999999987566 forward I I I I 
	cone -54.03847174872289116 -17.38601531875088568 19.54730918758143332 1.665334536937735304e-16 -4.996003610813204432e-16 -1 -34.99999999999997158 1.942890293094025918e-15 -5.828670879282069471e-15 1 I I 0 1 34.99999999999997158 forward I I I I 
	nullbs 
	nullbs 
	I I 
	0 
	0 
	0 
	} I I #
point $-1 -1 $-1 -39.89633612499194015 -31.52815094248182959 -6.952690812418531152 #
loop $-1 -1 $-1 $-1 $129 $87 #
point $-1 -1 $-1 -68.18060737245382086 -3.243879695019955989 -6.952690812418552468 #
coedge $130 -1 $-1 $131 $132 $133 $134 reversed $79 $-1 #
DXID-attrib $-1 -1 $-1 $-1 $80 @10 ASM ENTITY @1 7 #
face $135 -1 $-1 $136 $137 $9 $-1 $138 forward single #
cone-surface $-1 -1 $-1 -54.03847174872289116 -17.38601531875088568 19.54730918758143332 1.665334536937735304e-16 -4.996003610813204432e-16 -1 -34.99999999999997158 1.942890293094025918e-15 -5.828670879282069471e-15 1 I I 0 1 34.99999999999997158 forward I I I I #
point $-1 -1 $-1 -113.5605504425326018 30.82235487607412239 2.047309187581406675 #
DXID-attrib $-1 -1 $-1 $-1 $87 @10 ASM ENTITY @1 6 #
plane-surface $-1 -1 $-1 -47.87051136086394365 17.06621631656994609 19.54730918758141556 0.7071067811865475727 -0.7071067811865474617 4.710277376051325747e-16 -7.071067811865469288 -7.071067811865471064 2.355138688025661098e-15 forward_v I I I I #
loop $-1 -1 $-1 $139 $140 $68 #
coedge $-1 -1 $-1 $110 $110 $141 $142 forward $88 $-1 #
coedge $-1 -1 $-1 $90 $90 $119 $143 forward $69 $-1 #
coedge $-1 -1 $-1 $116 $115 $90 $113 reversed $71 $-1 #
edge $-1 -1 $-1 $144 0 $145 5.744562646538028616 $112 $146 forward @7 unknown #
ATTRIB_CUSTOM-attrib $-1 -1 $-1 $-1 $91 @17 sketch_attrib_def 1 1 3 @13 153 0 0 0 1 1 #
coedge $-1 -1 $-1 $112 $91 $94 $121 forward $71 $-1 #
coedge $-1 -1 $-1 $91 $112 $93 $120 reversed $71 $-1 #
coedge $-1 -1 $-1 $147 $148 $91 $118 forward $149 $-1 #
edge $-1 -1 $-1 $126 -4.308421984903521462 $125 1.436140661634507154 $117 $150 forward @7 unknown #
coedge $-1 -1 $-1 $94 $93 $111 $143 reversed $52 $-1 #
edge $-1 -1 $-1 $125 0 $144 3.5 $116 $151 forward @7 unknown #
edge $-1 -1 $-1 $126 0 $145 3.5 $115 $152 forward @7 unknown #
coedge $-1 -1 $-1 $133 $95 $148 $153 forward $124 $-1 #
coedge $-1 -1 $-1 $95 $133 $147 $154 forward $124 $-1 #
loop $-1 -1 $-1 $-1 $123 $155 #
vertex $-1 -1 $-1 $96 $156 #
vertex $-1 -1 $-1 $96 $157 #
ellipse-curve $-1 -1 $-1 -54.03847174872289116 -17.38601531875088568 19.54730918758143332 -1.665334536937735304e-16 4.996003610813204432e-16 1 34.99999999999997158 -1.942890293094025918e-15 5.828670879282069471e-15 1 I I #
point $-1 -1 $-1 -36.48591129319902393 -47.66649783563258325 2.047309187581461742 #
coedge $158 -1 $-1 $159 $160 $161 $162 reversed $100 $-1 #
ATTRIB_CUSTOM-attrib $-1 -1 $-1 $-1 $102 @17 sketch_attrib_def 1 1 3 @13 131 0 0 0 1 2 #
coedge $-1 -1 $-1 $163 $102 $160 $164 forward $79 $-1 #
coedge $-1 -1 $-1 $102 $163 $159 $165 reversed $79 $-1 #
coedge $-1 -1 $-1 $123 $122 $102 $134 forward $124 $-1 #
edge $-1 -1 $-1 $166 1.393643742307657973 $167 3.318745238077031701 $133 $127 forward @7 unknown #
DXID-attrib $-1 -1 $-1 $-1 $104 @10 ASM ENTITY @1 8 #
face $168 -1 $-1 $169 $170 $9 $-1 $171 reversed single #
loop $-1 -1 $-1 $-1 $172 $104 #
plane-surface $-1 -1 $-1 -68.45449155479339254 -2.96999551268039319 -15.45269081241855247 1.665334536937735304e-16 -4.996003610813204432e-16 -1 -9.999999999999992895 5.551115123125788619e-16 -1.665334536937734416e-15 forward_v I I I I #
loop $-1 -1 $-1 $173 $174 $68 #
coedge $-1 -1 $-1 $140 $140 $175 $176 forward $109 $-1 #
coedge $-1 -1 $-1 $141 $141 $110 $142 reversed $177 $-1 #
edge $-1 -1 $-1 $178 -3.141592653589793116 $178 3.141592653589793116 $110 $179 forward @7 unknown #
edge $-1 -1 $-1 $145 2.964440069102554531 $144 4.889541564871928259 $119 $180 forward @7 unknown #
vertex $-1 -1 $-1 $120 $181 #
vertex $-1 -1 $-1 $143 $182 #
straight-curve $-1 -1 $-1 -60.20643213658182447 -51.83824695407173522 -15.45269081241852405 7.071067811865469288 7.071067811865471064 -2.355138688025661098e-15 I I #
coedge $-1 -1 $-1 $161 $117 $123 $154 reversed $149 $-1 #
coedge $-1 -1 $-1 $117 $161 $122 $153 reversed $149 $-1 #
loop $-1 -1 $-1 $-1 $117 $68 #
straight-curve $-1 -1 $-1 -50.05138413078688586 -41.68319894827676819 19.54730918758144753 -7.071067811865469288 -7.071067811865471064 2.355138688025661098e-15 I I #
straight-curve $-1 -1 $-1 -60.20643213658183157 -51.8382469540717068 19.54730918758144753 1.665334536937734022e-15 -4.996003610813201276e-15 -9.999999999999992895 I I #
straight-curve $-1 -1 $-1 -19.58624011340206295 -11.21805493089193817 19.54730918758143687 1.665334536937734022e-15 -4.996003610813201276e-15 -9.999999999999992895 I I #
edge $-1 -1 $-1 $126 0.1771525844872388067 $166 1.393643742307657973 $122 $127 forward @7 unknown #
edge $-1 -1 $-1 $167 -2.964440069102554531 $125 -1.747948911282135143 $123 $127 forward @7 unknown #
face $183 -1 $-1 $-1 $184 $9 $-1 $185 forward single #
point $-1 -1 $-1 -60.20643213658183157 -51.8382469540717068 19.54730918758144753 #
point $-1 -1 $-1 -19.58624011340206295 -11.21805493089193817 19.54730918758143687 #
ATTRIB_CUSTOM-attrib $-1 -1 $-1 $-1 $129 @17 sketch_attrib_def 1 1 3 @13 140 0 1 0 1 1 #
coedge $-1 -1 $-1 $186 $129 $132 $165 forward $100 $-1 #
coedge $-1 -1 $-1 $129 $186 $131 $164 reversed $100 $-1 #
coedge $-1 -1 $-1 $148 $147 $129 $162 forward $149 $-1 #
edge $-1 -1 $-1 $167 -4.308421984903521462 $166 1.436140661634507154 $161 $187 forward @7 unknown #
coedge $-1 -1 $-1 $132 $131 $172 $188 reversed $79 $-1 #
edge $-1 -1 $-1 $166 0 $189 3.5 $131 $190 forward @7 unknown #
edge $-1 -1 $-1 $167 0 $191 3.5 $132 $192 forward @7 unknown #
vertex $-1 -1 $-1 $162 $193 #
vertex $-1 -1 $-1 $154 $194 #
DXID-attrib $-1 -1 $-1 $-1 $136 @10 ASM ENTITY @1 9 #
face $195 -1 $-1 $196 $197 $9 $-1 $198 reversed single #
loop $-1 -1 $-1 $199 $200 $136 #
cone-surface $-1 -1 $-1 -74.03847174872288406 -17.38601531875087858 39.54730918758141911 1.665334536937735304e-16 -4.996003610813204432e-16 -1 3.499999999999996003 -1.942890293094025178e-16 5.828670879282067893e-16 1 I I 0 1 3.499999999999996003 forward I I I I #
coedge $-1 -1 $-1 $201 $201 $163 $188 forward $137 $-1 #
loop $-1 -1 $-1 $149 $202 $68 #
coedge $-1 -1 $-1 $174 $174 $203 $204 forward $139 $-1 #
coedge $-1 -1 $-1 $175 $175 $140 $176 reversed $205 $-1 #
edge $-1 -1 $-1 $206 -3.141592653589793116 $206 3.141592653589793116 $140 $207 forward @7 unknown #
loop $-1 -1 $-1 $208 $141 $209 #
vertex $-1 -1 $-1 $142 $210 #
ellipse-curve $-1 -1 $-1 -54.03847174872289116 -37.38601531875086437 19.54730918758144043 -1.665334536937735304e-16 4.996003610813204432e-16 1 3.499999999999996891 -1.942890293094025425e-16 5.828670879282068879e-16 1 I I #
ellipse-curve $-1 -1 $-1 -54.03847174872288406 -17.38601531875090345 -15.45269081241853826 1.665334536937735304e-16 -4.996003610813204432e-16 -1 -34.99999999999997158 1.942890293094025918e-15 -5.828670879282069471e-15 1 I I #
point $-1 -1 $-1 -60.20643213658182447 -51.83824695407173522 -15.45269081241852405 #
point $-1 -1 $-1 -19.58624011340205584 -11.21805493089195593 -15.45269081241853826 #
DXID-attrib $-1 -1 $-1 $-1 $155 @10 ASM ENTITY @2 14 #
loop $-1 -1 $-1 $124 $211 $155 #
cone-surface $-1 -1 $-1 -54.03847174872289116 -17.38601531875088568 19.54730918758143332 -1.665334536937735304e-16 4.996003610813204432e-16 1 34.99999999999997158 -1.942890293094025918e-15 5.828670879282069471e-15 1 I I -0.4472135954999579277 0.8944271909999158554 34.99999999999997158 forward I I I I #
coedge $-1 -1 $-1 $160 $159 $201 $212 reversed $100 $-1 #
straight-curve $-1 -1 $-1 -58.02555936665888225 6.911168310775000378 19.54730918758141911 7.071067811865469288 7.071067811865471064 -2.355138688025661098e-15 I I #
edge $-1 -1 $-1 $191 -0.1771525844872387234 $189 1.747948911282135365 $163 $213 forward @7 unknown #
vertex $-1 -1 $-1 $212 $214 #
straight-curve $-1 -1 $-1 -47.87051136086394365 17.06621631656994609 19.54730918758141556 1.665334536937734022e-15 -4.996003610813201276e-15 -9.999999999999992895 I I #
vertex $-1 -1 $-1 $165 $215 #
straight-curve $-1 -1 $-1 -88.49070338404371228 -23.55397570660982964 19.54730918758142977 1.665334536937734022e-15 -4.996003610813201276e-15 -9.999999999999992895 I I #
point $-1 -1 $-1 -47.87051136086394365 17.06621631656994609 19.54730918758141556 #
point $-1 -1 $-1 -88.49070338404371228 -23.55397570660982964 19.54730918758142977 #
DXID-attrib $-1 -1 $-1 $-1 $169 @10 ASM ENTITY @2 10 #
face $216 -1 $-1 $209 $205 $9 $-1 $217 reversed single #
loop $-1 -1 $-1 $218 $203 $169 #
cone-surface $-1 -1 $-1 -34.03847174872290537 -17.38601531875088213 39.54730918758141911 1.665334536937735304e-16 -4.996003610813204432e-16 -1 3.499999999999998224 -1.942890293094026411e-16 5.828670879282071837e-16 1 I I 0 1 3.499999999999998224 forward I I I I #
loop $-1 -1 $-1 $-1 $219 $136 #
coedge $-1 -1 $-1 $200 $200 $202 $220 reversed $170 $-1 #
coedge $-1 -1 $-1 $172 $172 $186 $212 forward $137 $-1 #
coedge $-1 -1 $-1 $202 $202 $200 $220 forward $173 $-1 #
coedge $-1 -1 $-1 $203 $203 $174 $204 reversed $197 $-1 #
edge $-1 -1 $-1 $221 -3.141592653589793116 $221 3.141592653589793116 $174 $222 forward @7 unknown #
loop $-1 -1 $-1 $223 $175 $196 #
vertex $-1 -1 $-1 $176 $224 #
ellipse-curve $-1 -1 $-1 -54.03847174872288406 2.613984681249103659 19.54730918758142622 -1.665334536937735304e-16 4.996003610813204432e-16 1 3.499999999999996891 -1.942890293094025425e-16 5.828670879282068879e-16 1 I I #
loop $-1 -1 $-1 $-1 $225 $209 #
face $226 -1 $-1 $227 $177 $9 $-1 $228 reversed single #
point $-1 -1 $-1 -57.53847174872289116 -37.38601531875086437 19.54730918758144043 #
coedge $-1 -1 $-1 $211 $211 $229 $230 forward $184 $-1 #
edge $-1 -1 $-1 $189 -5.744562646538028616 $191 -0 $186 $231 forward @7 unknown #
ellipse-curve $-1 -1 $-1 -54.03847174872288406 -17.38601531875090345 -15.45269081241853826 1.665334536937735304e-16 -4.996003610813204432e-16 -1 -34.99999999999997158 1.942890293094025918e-15 -5.828670879282069471e-15 1 I I #
point $-1 -1 $-1 -47.87051136086393655 17.06621631656992477 -15.45269081241855957 #
point $-1 -1 $-1 -88.49070338404371228 -23.55397570660984741 -15.45269081241853826 #
DXID-attrib $-1 -1 $-1 $-1 $196 @10 ASM ENTITY @2 11 #
cone-surface $-1 -1 $-1 -54.03847174872289116 2.613984681249110764 39.547309187581412 1.665334536937735304e-16 -4.996003610813204432e-16 -1 3.499999999999996891 -1.942890293094025425e-16 5.828670879282068879e-16 1 I I 0 1 3.499999999999996891 forward I I I I #
loop $-1 -1 $-1 $-1 $232 $169 #
coedge $233 -1 $-1 $219 $219 $234 $235 reversed $199 $-1 #
edge $-1 -1 $-1 $236 -3.141592653589793116 $236 3.141592653589793116 $202 $237 forward @7 unknown #
vertex $-1 -1 $-1 $204 $238 #
ellipse-curve $-1 -1 $-1 -34.03847174872289827 -17.38601531875088924 19.54730918758143687 -1.665334536937735304e-16 4.996003610813204432e-16 1 3.499999999999998224 -1.942890293094026411e-16 5.828670879282071837e-16 1 I I #
loop $-1 -1 $-1 $-1 $239 $196 #
point $-1 -1 $-1 -57.53847174872288406 2.613984681249103659 19.54730918758142622 #
coedge $240 -1 $-1 $225 $225 $241 $242 reversed $208 $-1 #
DXID-attrib $-1 -1 $-1 $-1 $209 @10 ASM ENTITY @2 12 #
face $243 -1 $-1 $155 $244 $9 $-1 $245 reversed single #
cone-surface $-1 -1 $-1 -54.03847174872289827 -37.38601531875086437 39.54730918758142622 1.665334536937735304e-16 -4.996003610813204432e-16 -1 3.499999999999996891 -1.942890293094025425e-16 5.828670879282068879e-16 1 I I 0 1 3.499999999999996891 forward I I I I #
coedge $-1 -1 $-1 $229 $229 $211 $230 reversed $246 $-1 #
edge $-1 -1 $-1 $247 0 $247 6.283185307179586232 $211 $248 forward @7 unknown #
straight-curve $-1 -1 $-1 -88.49070338404371228 -23.55397570660984741 -15.45269081241853826 -7.071067811865469288 -7.071067811865471064 2.355138688025661098e-15 I I #
coedge $249 -1 $-1 $232 $232 $250 $251 reversed $218 $-1 #
ATTRIB_CUSTOM-attrib $-1 -1 $-1 $-1 $219 @17 sketch_attrib_def 1 1 3 @13 116 0 0 0 1 1 #
coedge $-1 -1 $-1 $234 $234 $219 $235 forward $244 $-1 #
edge $-1 -1 $-1 $252 -3.141592653589793116 $252 3.141592653589793116 $234 $253 forward @7 unknown #
vertex $-1 -1 $-1 $220 $254 #
ellipse-curve $-1 -1 $-1 -74.03847174872288406 -17.38601531875088924 19.54730918758142977 -1.665334536937735304e-16 4.996003610813204432e-16 1 3.499999999999996003 -1.942890293094025178e-16 5.828670879282067893e-16 1 I I #
point $-1 -1 $-1 -37.53847174872289827 -17.38601531875088924 19.54730918758143687 #
coedge $255 -1 $-1 $239 $239 $256 $257 reversed $223 $-1 #
ATTRIB_CUSTOM-attrib $-1 -1 $-1 $-1 $225 @17 sketch_attrib_def 1 1 3 @13 118 0 0 0 1 1 #
coedge $-1 -1 $-1 $241 $241 $225 $242 forward $258 $-1 #
edge $-1 -1 $-1 $259 -3.141592653589793116 $259 3.141592653589793116 $241 $260 forward @7 unknown #
DXID-attrib $-1 -1 $-1 $-1 $227 @10 ASM ENTITY @2 13 #
loop $-1 -1 $-1 $261 $234 $227 #
plane-surface $-1 -1 $-1 -54.03847174872289116 -17.38601531875087502 39.54730918758141911 1.665334536937735304e-16 -4.996003610813204432e-16 -1 -9.999999999999992895 5.551115123125788619e-16 -1.665334536937734416e-15 forward_v I I I I #
loop $-1 -1 $-1 $-1 $229 $227 #
vertex $-1 -1 $-1 $230 $262 #
ellipse-curve $-1 -1 $-1 -54.03847174872289116 -17.38601531875087502 39.54730918758141911 1.665334536937735304e-16 -4.996003610813204432e-16 -1 24.99999999999997868 -1.387778780781446859e-15 4.16333634234433466e-15 1 I I #
ATTRIB_CUSTOM-attrib $-1 -1 $-1 $-1 $232 @17 sketch_attrib_def 1 1 3 @13 120 0 0 0 1 1 #
coedge $-1 -1 $-1 $250 $250 $232 $251 forward $261 $-1 #
edge $-1 -1 $-1 $263 -3.141592653589793116 $263 3.141592653589793116 $250 $264 forward @7 unknown #
vertex $-1 -1 $-1 $235 $265 #
ellipse-curve $-1 -1 $-1 -74.03847174872288406 -17.38601531875087858 39.54730918758141911 1.665334536937735304e-16 -4.996003610813204432e-16 -1 3.499999999999996003 -1.942890293094025178e-16 5.828670879282067893e-16 1 I I #
point $-1 -1 $-1 -77.53847174872288406 -17.38601531875088924 19.54730918758142977 #
ATTRIB_CUSTOM-attrib $-1 -1 $-1 $-1 $239 @17 sketch_attrib_def 1 1 3 @13 114 0 0 0 1 1 #
coedge $-1 -1 $-1 $256 $256 $239 $257 forward $266 $-1 #
edge $-1 -1 $-1 $267 -3.141592653589793116 $267 3.141592653589793116 $256 $268 forward @7 unknown #
loop $-1 -1 $-1 $246 $241 $227 #
vertex $-1 -1 $-1 $242 $269 #
ellipse-curve $-1 -1 $-1 -54.03847174872289827 -37.38601531875086437 39.54730918758142622 1.665334536937735304e-16 -4.996003610813204432e-16 -1 3.499999999999996891 -1.942890293094025425e-16 5.828670879282068879e-16 1 I I #
loop $-1 -1 $-1 $266 $250 $227 #
point $-1 -1 $-1 -29.03847174872291248 -17.38601531875087502 39.54730918758142622 #
vertex $-1 -1 $-1 $251 $270 #
ellipse-curve $-1 -1 $-1 -34.03847174872290537 -17.38601531875088213 39.54730918758141911 1.665334536937735304e-16 -4.996003610813204432e-16 -1 3.499999999999998224 -1.942890293094026411e-16 5.828670879282071837e-16 1 I I #
point $-1 -1 $-1 -77.53847174872288406 -17.38601531875087858 39.547309187581412 #
loop $-1 -1 $-1 $258 $256 $227 #
vertex $-1 -1 $-1 $257 $271 #
ellipse-curve $-1 -1 $-1 -54.03847174872289116 2.613984681249110764 39.547309187581412 1.665334536937735304e-16 -4.996003610813204432e-16 -1 3.499999999999996891 -1.942890293094025425e-16 5.828670879282068879e-16 1 I I #
point $-1 -1 $-1 -57.53847174872289116 -37.38601531875086437 39.54730918758142622 #
point $-1 -1 $-1 -37.53847174872290537 -17.38601531875088213 39.54730918758141911 #
point $-1 -1 $-1 -57.53847174872288406 2.613984681249110764 39.547309187581412 #
End-of-ACIS-data 