700 0 1 0           
30 Autodesk Translation Framework 20 ASM 228.2.0.65535 NT 24 Sat Jun 18 21:49:01 2022 
1 9.999999999999999547e-07 1.000000000000000036e-10 
body $1 -1 $-1 $2 $-1 $3 #
rgb_color-st-attrib $-1 -1 $4 $-1 $0 0.627450980392156854 0.627450980392156854 0.627450980392156854 #
lump $-1 -1 $-1 $-1 $5 $0 #
transform $-1 -1 1 0 0 0 1 0 0 0 1 0 0 0 1 no_rotate no_reflect no_shear #
ATTRIB_CUSTOM-attrib $-1 -1 $-1 $1 $0 @20 Timestamp_attrib_def 1 1655354139441873 #
shell $-1 -1 $-1 $-1 $-1 $6 $-1 $2 #
face $7 -1 $-1 $8 $9 $5 $-1 $10 reversed single #
DXID-attrib $-1 -1 $-1 $-1 $6 @10 ASM ENTITY @1 0 #
face $11 -1 $-1 $12 $13 $5 $-1 $10 reversed single #
loop $-1 -1 $-1 $14 $15 $6 #
cone-surface $-1 -1 $-1 14.14213562373095634 -14.14213562373094746 -37.5 -0.7071067811865475727 0.7071067811865474617 0 0 0 8.999999999999994671 1 I I 0 1 8.999999999999994671 forward I I I I #
DXID-attrib $-1 -1 $-1 $-1 $8 @10 ASM ENTITY @1 1 #
face $16 -1 $-1 $17 $18 $5 $-1 $19 forward single #
loop $-1 -1 $-1 $20 $21 $8 #
loop $-1 -1 $-1 $-1 $22 $6 #
coedge $-1 -1 $-1 $15 $15 $23 $24 reversed $9 $-1 #
DXID-attrib $-1 -1 $-1 $-1 $12 @10 ASM ENTITY @1 2 #
face $25 -1 $-1 $26 $27 $5 $-1 $28 forward single #
loop $-1 -1 $-1 $29 $30 $12 #
cone-surface $-1 -1 $-1 0 0 -20 0 0 -1 -34.99999999999999289 0 0 1 I I 0 1 34.99999999999999289 forward I I I I #
loop $-1 -1 $-1 $-1 $31 $8 #
coedge $-1 -1 $-1 $21 $21 $32 $33 reversed $13 $-1 #
coedge $-1 -1 $-1 $22 $22 $34 $35 reversed $14 $-1 #
coedge $-1 -1 $-1 $23 $23 $15 $24 forward $36 $-1 #
edge $-1 -1 $-1 $37 0 $37 5.450770378718042153 $23 $38 forward @7 unknown #
DXID-attrib $-1 -1 $-1 $-1 $17 @10 ASM ENTITY @1 3 #
face $39 -1 $-1 $40 $41 $5 $-1 $42 forward single #
loop $-1 -1 $-1 $43 $32 $17 #
plane-surface $-1 -1 $-1 -6.16796038785894396 -34.45223163532084953 -20 -0.7071067811865475727 0.7071067811865474617 0 7.071067811865474617 7.071067811865475505 0 forward_v I I I I #
loop $-1 -1 $-1 $-1 $44 $12 #
coedge $-1 -1 $-1 $30 $30 $31 $45 forward $18 $-1 #
coedge $-1 -1 $-1 $31 $31 $30 $45 reversed $20 $-1 #
coedge $-1 -1 $-1 $32 $32 $21 $33 forward $27 $-1 #
edge $-1 -1 $-1 $46 -3.141592653589793116 $46 3.141592653589793116 $32 $47 forward @7 unknown #
coedge $-1 -1 $-1 $34 $34 $22 $35 forward $48 $-1 #
edge $-1 -1 $-1 $49 -3.141592653589793116 $49 3.141592653589793116 $34 $50 forward @7 unknown #
loop $-1 -1 $-1 $51 $23 $52 #
vertex $-1 -1 $-1 $24 $53 #
intcurve-curve $-1 -1 $-1 forward { surfintcur full nubs 3 periodic 17 
	0 3 0.3406999022165052571 2 0.6813998044330105142 2 1.022046199556260415 2 1.362692594679510316 2 
	1.703338989802760217 2 2.043985384926009896 2 2.384685287142515264 2 2.725385189359020632 2 3.066085091575526 2 
	3.406784993792031369 2 3.747431388915281048 2 4.088077784038531171 2 4.428724179161781294 2 4.769370574285031417 2 
	5.110070476501537229 2 5.450770378718042153 3 
	-17.55256045552387434 30.28048251688171888 -37.5 
	-17.55256045552387434 30.28048251688171888 -36.36433365927831574 
	-17.75844956437007838 30.16391434834991614 -35.15665852477584963 
	-18.56804739649864189 29.67240922314001494 -32.94087623668262665 
	-19.16903453954326864 29.29511602809946424 -31.93229882604780911 
	-20.50323477836725417 28.37733014148264488 -30.33990416561059789 
	-21.326653870763149 27.77433195858679937 -29.64805808444832991 
	-23.04884420946535073 26.36267174619570497 -28.72796814358908435 
	-23.94582608826781467 25.55164859479049966 -28.50000000000000711 
	-25.55164859479049966 23.94582608826781467 -28.50000000000000711 
	-26.36267174619570497 23.04884420946534362 -28.72796814358908435 
	-27.77433195858679937 21.32665387076314545 -29.64805808444833346 
	-28.37733014148263777 20.50323477836725417 -30.33990416561060144 
	-29.29511602809946424 19.16903453954327219 -31.93229882604780911 
	-29.67240922314000784 18.56804739649865255 -32.94087623668264087 
	-30.16391434834990548 17.75844956437008548 -35.15665852477586384 
	-30.28048251688171888 17.55256045552387079 -36.36433365927831574 
	-30.28048251688171888 17.55256045552387079 -38.63566634072168426 
	-30.16391434834990548 17.75844956437008548 -39.84334147522413616 
	-29.67240922314000784 18.56804739649865255 -42.05912376331735203 
	-29.29511602809946424 19.16903453954327219 -43.06770117395218733 
	-28.37733014148263777 20.50323477836725417 -44.66009583438940211 
	-27.77433195858680648 21.32665387076315255 -45.35194191555167009 
	-26.36267174619571563 23.04884420946535073 -46.2720318564109192 
	-25.55164859479049966 23.94582608826781467 -46.49999999999999289 
	-23.94582608826781467 25.55164859479049966 -46.49999999999999289 
	-23.04884420946535073 26.36267174619571918 -46.2720318564109192 
	-21.326653870763149 27.77433195858681003 -45.35194191555167009 
	-20.50323477836725061 28.37733014148264488 -44.66009583438940211 
	-19.16903453954326508 29.29511602809946424 -43.06770117395218733 
	-18.56804739649864189 29.67240922314001494 -42.05912376331735913 
	-17.75844956437007482 30.16391434834991614 -39.84334147522414327 
	-17.55256045552387434 30.28048251688171888 -38.63566634072168426 
	-17.55256045552387434 30.28048251688171888 -37.5 
	0.003757401443490437573 
	
	cone 14.14213562373095634 -14.14213562373094746 -37.5 -0.7071067811865475727 0.7071067811865474617 0 0 0 8.999999999999994671 1 I I 0 1 8.999999999999994671 forward I I I I 
	cone 0 0 -20 0 0 -1 -34.99999999999999289 0 0 1 I I 0 1 34.99999999999999289 forward I I I I 
	nullbs 
	nullbs 
	I I 
	0 
	0 
	0 
	} I I #
DXID-attrib $-1 -1 $-1 $-1 $26 @10 ASM ENTITY @1 4 #
face $54 -1 $-1 $55 $56 $5 $-1 $57 reversed single #
loop $-1 -1 $-1 $-1 $58 $26 #
plane-surface $-1 -1 $-1 14.41601980607052269 -14.41601980607052269 -55 0 0 -1 -10 0 0 forward_v I I I I #
loop $-1 -1 $-1 $-1 $59 $17 #
coedge $60 -1 $-1 $61 $62 $63 $64 reversed $29 $-1 #
edge $-1 -1 $-1 $65 2.725385189359019744 $65 8.176155568077060565 $30 $66 forward @7 unknown #
vertex $-1 -1 $-1 $33 $67 #
ellipse-curve $-1 -1 $-1 14.14213562373095456 -14.14213562373094391 -37.5 0.7071067811865475727 -0.7071067811865474617 0 0 0 8.999999999999994671 1 I I #
loop $-1 -1 $-1 $68 $34 $55 #
vertex $-1 -1 $-1 $35 $69 #
ellipse-curve $-1 -1 $-1 -14.14213562373094746 14.14213562373095101 -37.5 -0.7071067811865475727 0.7071067811865474617 0 0 0 8.999999999999994671 1 I I #
loop $-1 -1 $-1 $-1 $70 $52 #
face $71 -1 $-1 $72 $36 $5 $-1 $73 forward single #
point $-1 -1 $-1 -17.55256045552386723 30.28048251688171888 -37.5 #
DXID-attrib $-1 -1 $-1 $-1 $40 @10 ASM ENTITY @1 5 #
face $74 -1 $-1 $52 $48 $5 $-1 $75 forward single #
loop $-1 -1 $-1 $76 $77 $40 #
plane-surface $-1 -1 $-1 0 0 -20 0 0 1 10 0 0 forward_v I I I I #
coedge $-1 -1 $-1 $78 $78 $79 $80 forward $41 $-1 #
coedge $81 -1 $-1 $82 $83 $84 $85 reversed $43 $-1 #
ATTRIB_CUSTOM-attrib $-1 -1 $-1 $-1 $44 @17 sketch_attrib_def 1 1 3 @13 131 0 0 0 2 2 #
coedge $-1 -1 $-1 $86 $44 $83 $87 forward $29 $-1 #
coedge $-1 -1 $-1 $44 $86 $82 $88 reversed $29 $-1 #
coedge $-1 -1 $-1 $89 $90 $44 $64 forward $91 $-1 #
edge $-1 -1 $-1 $92 -1.747948911282135143 $93 0.1771525844872388067 $63 $94 forward @7 unknown #
vertex $-1 -1 $-1 $45 $95 #
intcurve-curve $-1 -1 $-1 forward { surfintcur full nubs 3 periodic 17 
	0 3 0.3406999022165053126 2 0.6813998044330106252 2 1.022046199556260415 2 1.362692594679510094 2 
	1.703338989802759773 2 2.043985384926009452 2 2.384685287142514376 2 2.725385189359019744 2 3.066085091575525112 2 
	3.406784993792030036 2 3.747431388915280159 2 4.088077784038530282 2 4.428724179161779517 2 4.769370574285028752 2 
	5.110070476501534564 2 5.450770378718040376 3 
	30.28048251688172243 -17.55256045552386723 -37.5 
	30.28048251688172243 -17.55256045552386723 -38.63566634072168426 
	30.16391434834991614 -17.75844956437007482 -39.84334147522413616 
	29.67240922314001494 -18.56804739649864189 -42.05912376331735203 
	29.2951160280994749 -19.16903453954326864 -43.06770117395218733 
	28.37733014148264843 -20.50323477836725061 -44.66009583438940211 
	27.77433195858680648 -21.32665387076314545 -45.35194191555167009 
	26.36267174619571563 -23.04884420946534362 -46.2720318564109192 
	25.55164859479051032 -23.94582608826781467 -46.49999999999999289 
	23.94582608826782533 -25.55164859479049966 -46.49999999999999289 
	23.04884420946535428 -26.36267174619570852 -46.2720318564109192 
	21.326653870763149 -27.77433195858680293 -45.35194191555167009 
	20.50323477836725417 -28.37733014148263777 -44.66009583438940211 
	19.16903453954327574 -29.29511602809946424 -43.06770117395218733 
	18.5680473964986561 -29.67240922314001139 -42.05912376331735203 
	17.75844956437008904 -30.16391434834991259 -39.84334147522413616 
	17.55256045552387789 -30.28048251688171888 -38.63566634072168426 
	17.55256045552387789 -30.28048251688171888 -36.36433365927831574 
	17.75844956437008548 -30.16391434834990548 -35.15665852477585673 
	18.56804739649865255 -29.67240922314000784 -32.94087623668264087 
	19.16903453954327574 -29.29511602809946424 -31.93229882604780911 
	20.50323477836725417 -28.37733014148264488 -30.33990416561059789 
	21.326653870763149 -27.77433195858679937 -29.64805808444833346 
	23.04884420946535428 -26.36267174619570497 -28.7279681435890808 
	23.94582608826782533 -25.55164859479049966 -28.50000000000000711 
	25.55164859479050676 -23.94582608826782177 -28.50000000000000711 
	26.36267174619570852 -23.04884420946535073 -28.7279681435890808 
	27.77433195858680293 -21.32665387076314545 -29.64805808444832635 
	28.37733014148263777 -20.50323477836725417 -30.33990416561059078 
	29.29511602809946424 -19.16903453954327219 -31.93229882604779846 
	29.67240922314001494 -18.56804739649864899 -32.94087623668261955 
	30.16391434834991614 -17.75844956437007838 -35.15665852477584963 
	30.28048251688172243 -17.55256045552386723 -36.36433365927831574 
	30.28048251688172243 -17.55256045552386723 -37.5 
	0.003757401443489211124 
	
	cone 14.14213562373095634 -14.14213562373094746 -37.5 -0.7071067811865475727 0.7071067811865474617 0 0 0 8.999999999999994671 1 I I 0 1 8.999999999999994671 forward I I I I 
	cone 0 0 -20 0 0 -1 -34.99999999999999289 0 0 1 I I 0 1 34.99999999999999289 forward I I I I 
	nullbs 
	nullbs 
	I I 
	0 
	0 
	0 
	} I I #
point $-1 -1 $-1 14.14213562373095456 -14.14213562373094391 -46.49999999999999289 #
loop $-1 -1 $-1 $-1 $96 $55 #
point $-1 -1 $-1 -14.14213562373094746 14.14213562373095101 -46.49999999999999289 #
coedge $97 -1 $-1 $98 $99 $100 $101 reversed $51 $-1 #
DXID-attrib $-1 -1 $-1 $-1 $52 @10 ASM ENTITY @1 7 #
face $102 -1 $-1 $103 $104 $5 $-1 $105 forward single #
cone-surface $-1 -1 $-1 0 0 -20 0 0 -1 -34.99999999999999289 0 0 1 I I 0 1 34.99999999999999289 forward I I I I #
DXID-attrib $-1 -1 $-1 $-1 $55 @10 ASM ENTITY @1 6 #
plane-surface $-1 -1 $-1 6.167960387858948401 34.45223163532084953 -20 0.7071067811865475727 -0.7071067811865474617 0 -7.071067811865474617 -7.071067811865475505 -0 forward_v I I I I #
loop $-1 -1 $-1 $106 $107 $40 #
coedge $-1 -1 $-1 $77 $77 $108 $109 forward $56 $-1 #
coedge $-1 -1 $-1 $58 $58 $86 $110 forward $41 $-1 #
coedge $-1 -1 $-1 $83 $82 $58 $80 reversed $43 $-1 #
edge $-1 -1 $-1 $111 0 $112 5.744562646538028616 $79 $113 forward @7 unknown #
ATTRIB_CUSTOM-attrib $-1 -1 $-1 $-1 $59 @17 sketch_attrib_def 1 1 3 @13 153 0 0 0 1 1 #
coedge $-1 -1 $-1 $79 $59 $62 $88 forward $43 $-1 #
coedge $-1 -1 $-1 $59 $79 $61 $87 reversed $43 $-1 #
coedge $-1 -1 $-1 $114 $115 $59 $85 forward $116 $-1 #
edge $-1 -1 $-1 $93 -4.308421984903521462 $92 1.436140661634507154 $84 $117 forward @7 unknown #
coedge $-1 -1 $-1 $62 $61 $78 $110 reversed $29 $-1 #
edge $-1 -1 $-1 $92 0 $111 3.5 $83 $118 forward @7 unknown #
edge $-1 -1 $-1 $93 0 $112 3.5 $82 $119 forward @7 unknown #
coedge $-1 -1 $-1 $100 $63 $115 $120 forward $91 $-1 #
coedge $-1 -1 $-1 $63 $100 $114 $121 forward $91 $-1 #
loop $-1 -1 $-1 $-1 $90 $122 #
vertex $-1 -1 $-1 $64 $123 #
vertex $-1 -1 $-1 $64 $124 #
ellipse-curve $-1 -1 $-1 0 0 -20 0 0 1 34.99999999999999289 0 0 1 I I #
point $-1 -1 $-1 17.55256045552387434 -30.28048251688171177 -37.5 #
coedge $125 -1 $-1 $126 $127 $128 $129 reversed $68 $-1 #
ATTRIB_CUSTOM-attrib $-1 -1 $-1 $-1 $70 @17 sketch_attrib_def 1 1 3 @13 131 0 0 0 1 2 #
coedge $-1 -1 $-1 $130 $70 $127 $131 forward $51 $-1 #
coedge $-1 -1 $-1 $70 $130 $126 $132 reversed $51 $-1 #
coedge $-1 -1 $-1 $90 $89 $70 $101 forward $91 $-1 #
edge $-1 -1 $-1 $133 1.393643742307657973 $134 3.318745238077031701 $100 $94 forward @7 unknown #
DXID-attrib $-1 -1 $-1 $-1 $72 @10 ASM ENTITY @1 8 #
face $135 -1 $-1 $136 $137 $5 $-1 $138 reversed single #
loop $-1 -1 $-1 $-1 $139 $72 #
plane-surface $-1 -1 $-1 -14.41601980607051914 14.41601980607051914 -55 0 0 -1 -10 0 0 forward_v I I I I #
loop $-1 -1 $-1 $140 $141 $40 #
coedge $-1 -1 $-1 $107 $107 $142 $143 forward $76 $-1 #
coedge $-1 -1 $-1 $108 $108 $77 $109 reversed $144 $-1 #
edge $-1 -1 $-1 $145 -3.141592653589793116 $145 3.141592653589793116 $77 $146 forward @7 unknown #
edge $-1 -1 $-1 $112 2.964440069102554531 $111 4.889541564871928259 $86 $147 forward @7 unknown #
vertex $-1 -1 $-1 $87 $148 #
vertex $-1 -1 $-1 $110 $149 #
straight-curve $-1 -1 $-1 -6.16796038785894396 -34.45223163532084953 -55 7.071067811865474617 7.071067811865475505 0 I I #
coedge $-1 -1 $-1 $128 $84 $90 $121 reversed $116 $-1 #
coedge $-1 -1 $-1 $84 $128 $89 $120 reversed $116 $-1 #
loop $-1 -1 $-1 $-1 $84 $40 #
straight-curve $-1 -1 $-1 3.987087617936004857 -24.29718362952590027 -20 -7.071067811865474617 -7.071067811865475505 0 I I #
straight-curve $-1 -1 $-1 -6.16796038785894396 -34.45223163532084953 -20 0 0 -10 I I #
straight-curve $-1 -1 $-1 34.45223163532084953 6.167960387858952842 -20 0 0 -10 I I #
edge $-1 -1 $-1 $93 0.1771525844872388067 $133 1.393643742307657973 $89 $94 forward @7 unknown #
edge $-1 -1 $-1 $134 -2.964440069102554531 $92 -1.747948911282135143 $90 $94 forward @7 unknown #
face $150 -1 $-1 $-1 $151 $5 $-1 $152 forward single #
point $-1 -1 $-1 -6.16796038785894396 -34.45223163532084953 -20 #
point $-1 -1 $-1 34.45223163532084953 6.167960387858952842 -20 #
ATTRIB_CUSTOM-attrib $-1 -1 $-1 $-1 $96 @17 sketch_attrib_def 1 1 3 @13 140 0 1 0 1 1 #
coedge $-1 -1 $-1 $153 $96 $99 $132 forward $68 $-1 #
coedge $-1 -1 $-1 $96 $153 $98 $131 reversed $68 $-1 #
coedge $-1 -1 $-1 $115 $114 $96 $129 forward $116 $-1 #
edge $-1 -1 $-1 $134 -4.308421984903521462 $133 1.436140661634507154 $128 $154 forward @7 unknown #
coedge $-1 -1 $-1 $99 $98 $139 $155 reversed $51 $-1 #
edge $-1 -1 $-1 $133 0 $156 3.5 $98 $157 forward @7 unknown #
edge $-1 -1 $-1 $134 0 $158 3.5 $99 $159 forward @7 unknown #
vertex $-1 -1 $-1 $129 $160 #
vertex $-1 -1 $-1 $121 $161 #
DXID-attrib $-1 -1 $-1 $-1 $103 @10 ASM ENTITY @1 9 #
face $162 -1 $-1 $163 $164 $5 $-1 $165 reversed single #
loop $-1 -1 $-1 $166 $167 $103 #
cone-surface $-1 -1 $-1 -20.00000000000000355 -4.440892098500626162e-15 0 0 0 -1 3.499999999999998668 0 0 1 I I 0 1 3.499999999999998668 forward I I I I #
coedge $-1 -1 $-1 $168 $168 $130 $155 forward $104 $-1 #
loop $-1 -1 $-1 $116 $169 $40 #
coedge $-1 -1 $-1 $141 $141 $170 $171 forward $106 $-1 #
coedge $-1 -1 $-1 $142 $142 $107 $143 reversed $172 $-1 #
edge $-1 -1 $-1 $173 -3.141592653589793116 $173 3.141592653589793116 $107 $174 forward @7 unknown #
loop $-1 -1 $-1 $175 $108 $176 #
vertex $-1 -1 $-1 $109 $177 #
ellipse-curve $-1 -1 $-1 -2.449293598294706513e-15 -20 -20 0 0 1 3.499999999999999112 0 0 1 I I #
ellipse-curve $-1 -1 $-1 0 0 -55 0 0 -1 -34.99999999999999289 0 0 1 I I #
point $-1 -1 $-1 -6.16796038785894396 -34.45223163532084953 -55 #
point $-1 -1 $-1 34.45223163532084953 6.167960387858952842 -55 #
DXID-attrib $-1 -1 $-1 $-1 $122 @10 ASM ENTITY @2 14 #
loop $-1 -1 $-1 $91 $178 $122 #
cone-surface $-1 -1 $-1 0 0 -20 0 0 1 34.99999999999999289 0 0 1 I I -0.4472135954999579277 0.8944271909999158554 34.99999999999999289 forward I I I I #
coedge $-1 -1 $-1 $127 $126 $168 $179 reversed $68 $-1 #
straight-curve $-1 -1 $-1 -3.987087617936001749 24.29718362952590027 -20 7.071067811865474617 7.071067811865475505 0 I I #
edge $-1 -1 $-1 $158 -0.1771525844872387234 $156 1.747948911282135365 $130 $180 forward @7 unknown #
vertex $-1 -1 $-1 $179 $181 #
straight-curve $-1 -1 $-1 6.167960387858948401 34.45223163532084953 -20 0 0 -10 I I #
vertex $-1 -1 $-1 $132 $182 #
straight-curve $-1 -1 $-1 -34.45223163532084953 -6.167960387858951066 -20 0 0 -10 I I #
point $-1 -1 $-1 6.167960387858948401 34.45223163532084953 -20 #
point $-1 -1 $-1 -34.45223163532084953 -6.167960387858951066 -20 #
DXID-attrib $-1 -1 $-1 $-1 $136 @10 ASM ENTITY @2 10 #
face $183 -1 $-1 $176 $172 $5 $-1 $184 reversed single #
loop $-1 -1 $-1 $185 $170 $136 #
cone-surface $-1 -1 $-1 20 -4.440892098500626162e-15 0 0 0 -1 3.500000000000000888 0 0 1 I I 0 1 3.500000000000000888 forward I I I I #
loop $-1 -1 $-1 $-1 $186 $103 #
coedge $-1 -1 $-1 $167 $167 $169 $187 reversed $137 $-1 #
coedge $-1 -1 $-1 $139 $139 $153 $179 forward $104 $-1 #
coedge $-1 -1 $-1 $169 $169 $167 $187 forward $140 $-1 #
coedge $-1 -1 $-1 $170 $170 $141 $171 reversed $164 $-1 #
edge $-1 -1 $-1 $188 -3.141592653589793116 $188 3.141592653589793116 $141 $189 forward @7 unknown #
loop $-1 -1 $-1 $190 $142 $163 #
vertex $-1 -1 $-1 $143 $191 #
ellipse-curve $-1 -1 $-1 0 20 -20 0 0 1 3.499999999999999112 0 0 1 I I #
loop $-1 -1 $-1 $-1 $192 $176 #
face $193 -1 $-1 $194 $144 $5 $-1 $195 reversed single #
point $-1 -1 $-1 -3.500000000000001332 -20 -20 #
coedge $-1 -1 $-1 $178 $178 $196 $197 forward $151 $-1 #
edge $-1 -1 $-1 $156 -5.744562646538028616 $158 -0 $153 $198 forward @7 unknown #
ellipse-curve $-1 -1 $-1 0 0 -55 0 0 -1 -34.99999999999999289 0 0 1 I I #
point $-1 -1 $-1 6.167960387858948401 34.45223163532084953 -55 #
point $-1 -1 $-1 -34.45223163532084953 -6.167960387858951066 -55 #
DXID-attrib $-1 -1 $-1 $-1 $163 @10 ASM ENTITY @2 11 #
cone-surface $-1 -1 $-1 0 20 0 0 0 -1 3.499999999999999112 0 0 1 I I 0 1 3.499999999999999112 forward I I I I #
loop $-1 -1 $-1 $-1 $199 $136 #
coedge $200 -1 $-1 $186 $186 $201 $202 reversed $166 $-1 #
edge $-1 -1 $-1 $203 -3.141592653589793116 $203 3.141592653589793116 $169 $204 forward @7 unknown #
vertex $-1 -1 $-1 $171 $205 #
ellipse-curve $-1 -1 $-1 20 -4.440892098500626162e-15 -20 0 0 1 3.500000000000000888 0 0 1 I I #
loop $-1 -1 $-1 $-1 $206 $163 #
point $-1 -1 $-1 -3.499999999999999112 20 -20 #
coedge $207 -1 $-1 $192 $192 $208 $209 reversed $175 $-1 #
DXID-attrib $-1 -1 $-1 $-1 $176 @10 ASM ENTITY @2 12 #
face $210 -1 $-1 $122 $211 $5 $-1 $212 reversed single #
cone-surface $-1 -1 $-1 -2.449293598294706513e-15 -20 0 0 0 -1 3.499999999999999112 0 0 1 I I 0 1 3.499999999999999112 forward I I I I #
coedge $-1 -1 $-1 $196 $196 $178 $197 reversed $213 $-1 #
edge $-1 -1 $-1 $214 0 $214 6.283185307179586232 $178 $215 forward @7 unknown #
straight-curve $-1 -1 $-1 -34.45223163532084953 -6.167960387858951066 -55 -7.071067811865474617 -7.071067811865475505 -0 I I #
coedge $216 -1 $-1 $199 $199 $217 $218 reversed $185 $-1 #
ATTRIB_CUSTOM-attrib $-1 -1 $-1 $-1 $186 @17 sketch_attrib_def 1 1 3 @13 116 0 0 0 1 1 #
coedge $-1 -1 $-1 $201 $201 $186 $202 forward $211 $-1 #
edge $-1 -1 $-1 $219 -3.141592653589793116 $219 3.141592653589793116 $201 $220 forward @7 unknown #
vertex $-1 -1 $-1 $187 $221 #
ellipse-curve $-1 -1 $-1 -20.00000000000000355 -4.440892098500626162e-15 -20 0 0 1 3.499999999999998668 0 0 1 I I #
point $-1 -1 $-1 16.5 -4.86951847820219918e-15 -20 #
coedge $222 -1 $-1 $206 $206 $223 $224 reversed $190 $-1 #
ATTRIB_CUSTOM-attrib $-1 -1 $-1 $-1 $192 @17 sketch_attrib_def 1 1 3 @13 118 0 0 0 1 1 #
coedge $-1 -1 $-1 $208 $208 $192 $209 forward $225 $-1 #
edge $-1 -1 $-1 $226 -3.141592653589793116 $226 3.141592653589793116 $208 $227 forward @7 unknown #
DXID-attrib $-1 -1 $-1 $-1 $194 @10 ASM ENTITY @2 13 #
loop $-1 -1 $-1 $228 $201 $194 #
plane-surface $-1 -1 $-1 0 0 0 -0 -0 -1 -10 0 0 forward_v I I I I #
loop $-1 -1 $-1 $-1 $196 $194 #
vertex $-1 -1 $-1 $197 $229 #
ellipse-curve $-1 -1 $-1 0 0 0 -0 -0 -1 24.99999999999999645 0 0 1 I I #
ATTRIB_CUSTOM-attrib $-1 -1 $-1 $-1 $199 @17 sketch_attrib_def 1 1 3 @13 120 0 0 0 1 1 #
coedge $-1 -1 $-1 $217 $217 $199 $218 forward $228 $-1 #
edge $-1 -1 $-1 $230 -3.141592653589793116 $230 3.141592653589793116 $217 $231 forward @7 unknown #
vertex $-1 -1 $-1 $202 $232 #
ellipse-curve $-1 -1 $-1 -20.00000000000000355 -4.440892098500626162e-15 0 -0 -0 -1 3.499999999999998668 0 0 1 I I #
point $-1 -1 $-1 -23.50000000000000711 -4.86951847820219918e-15 -20 #
ATTRIB_CUSTOM-attrib $-1 -1 $-1 $-1 $206 @17 sketch_attrib_def 1 1 3 @13 114 0 0 0 1 1 #
coedge $-1 -1 $-1 $223 $223 $206 $224 forward $233 $-1 #
edge $-1 -1 $-1 $234 -3.141592653589793116 $234 3.141592653589793116 $223 $235 forward @7 unknown #
loop $-1 -1 $-1 $213 $208 $194 #
vertex $-1 -1 $-1 $209 $236 #
ellipse-curve $-1 -1 $-1 -2.449293598294706513e-15 -20 0 -0 -0 -1 3.499999999999999112 0 0 1 I I #
loop $-1 -1 $-1 $233 $217 $194 #
point $-1 -1 $-1 24.99999999999999645 0 0 #
vertex $-1 -1 $-1 $218 $237 #
ellipse-curve $-1 -1 $-1 20 -4.440892098500626162e-15 0 -0 -0 -1 3.500000000000000888 0 0 1 I I #
point $-1 -1 $-1 -23.50000000000000711 -4.86951847820219918e-15 0 #
loop $-1 -1 $-1 $225 $223 $194 #
vertex $-1 -1 $-1 $224 $238 #
ellipse-curve $-1 -1 $-1 0 20 0 -0 -0 -1 3.499999999999999112 0 0 1 I I #
point $-1 -1 $-1 -3.500000000000001332 -20 0 #
point $-1 -1 $-1 16.5 -4.86951847820219918e-15 0 #
point $-1 -1 $-1 -3.499999999999999112 20 0 #
End-of-ACIS-data 